<?xml version="1.0" standalone="no"?><!DOCTYPE svg PUBLIC "-//W3C//DTD SVG 1.1//EN" "http://www.w3.org/Graphics/SVG/1.1/DTD/svg11.dtd"><svg t="1542672508287" class="icon" style="" viewBox="0 0 1069 1024" version="1.1" xmlns="http://www.w3.org/2000/svg" p-id="2193" xmlns:xlink="http://www.w3.org/1999/xlink" width="208.7890625" height="200"><defs><style type="text/css"></style></defs><path d="M454.269388 43.885714s-323.918367 188.081633-94.040817 502.595919 353.17551 429.453061 353.175511 429.453061l-518.269388 12.538775-17.596082-537.077551L23.771429 334.367347l20.897959-119.243755L237.787429 83.591837z" fill="#ffffff" p-id="2194"></path><path d="M1069.97551 306.395429C1069.97551 131.291429 827.904 0 534.987755 0S0 131.291429 0 306.395429h69.93502C69.93502 181.96898 275.591837 70.436571 534.987755 70.436571s465.063184 111.532408 465.063184 235.958858z m0 0" fill="#ffffff" p-id="2195"></path><path d="M0 291.463837c0 105.033143 84.542694 190.171429 188.813061 190.171428a35.213061 35.213061 0 0 0 0-70.426122A118.439184 118.439184 0 0 1 104.761469 376.163265a120.163265 120.163265 0 0 1-34.816-84.636734 34.972735 34.972735 0 1 0-69.93502 0z m1000.04049 0c0 66.131592-53.227102 119.745306-118.88849 119.745306a35.213061 35.213061 0 0 0 0 70.426122 188.081633 188.081633 0 0 0 133.517061-55.70351 190.87151 190.87151 0 0 0 55.306449-134.478367 34.96751 34.96751 0 1 0-69.93502 0z m0 0" fill="#ffffff" p-id="2196"></path><path d="M846.189714 446.422204v469.159184c0 20.542694-18.285714 37.961143-41.795918 37.961143H265.571265c-23.353469 0-41.795918-17.606531-41.795918-37.961143v-469.159184a34.972735 34.972735 0 1 0-69.93502 0v469.159184c0 60.050286 50.531265 108.408163 111.720489 108.408163h538.853878c61.293714 0.010449 111.699592-48.054857 111.699592-108.397714v-469.159184a34.96751 34.96751 0 1 0-69.935021 0z m0 0" fill="#ffffff" p-id="2197"></path><path d="M667.198694 546.502531m-67.604898 0a67.604898 67.604898 0 1 0 135.209796 0 67.604898 67.604898 0 1 0-135.209796 0Z" fill="#ffffff" p-id="2198"></path><path d="M390.885878 767.822367m-47.804082 0a47.804082 47.804082 0 1 0 95.608163 0 47.804082 47.804082 0 1 0-95.608163 0Z" fill="#ffffff" p-id="2199"></path><path d="M421.449143 319.843265m-43.885714 0a43.885714 43.885714 0 1 0 87.771428 0 43.885714 43.885714 0 1 0-87.771428 0Z" fill="#ffffff" p-id="2200"></path><path d="M665.986612 499.555265a50.238694 50.238694 0 1 1-50.238694 50.238694 50.301388 50.301388 0 0 1 50.238694-50.238694m0-62.693877a112.932571 112.932571 0 1 0 112.932572 112.94302 112.932571 112.932571 0 0 0-112.932572-112.94302zM392.620408 722.243918a39.925551 39.925551 0 1 1-39.925551 39.925551 39.977796 39.977796 0 0 1 39.925551-39.925551m0-62.693877a102.619429 102.619429 0 1 0 102.619429 102.619428 102.619429 102.619429 0 0 0-102.619429-102.619428zM420.675918 277.817469a29.257143 29.257143 0 1 1-29.257142 29.257143 29.257143 29.257143 0 0 1 29.257142-29.257143m0-62.693877a91.95102 91.95102 0 1 0 91.951021 91.95102 91.95102 91.95102 0 0 0-91.951021-91.95102zM207.673469 230.567184a30.124408 30.124408 0 1 0 30.124409 30.124408 30.124408 30.124408 0 0 0-30.124409-30.124408zM665.338776 778.093714a30.124408 30.124408 0 1 0 30.124408 30.124408 30.124408 30.124408 0 0 0-30.124408-30.124408zM824.163265 223.252898a30.124408 30.124408 0 1 0 30.124408 30.124408 30.124408 30.124408 0 0 0-30.124408-30.124408z" fill="#ffffff" p-id="2201"></path></svg>